<svg width="200" height="100" viewBox="0 0 400 200" fill="none" xmlns="http://www.w3.org/2000/svg">
<path d="M50 150 C 100 100, 150 100, 200 150 S 250 200, 300 150 S 350 100, 400 150" stroke="#a3b18a" stroke-width="2" fill="none" />
<path d="M0 150 H 50" stroke="#a3b18a" stroke-width="2"/>
<path d="M10,150 l20,-30 l20,30" fill="#a3b18a" stroke="#a3b18a" stroke-linejoin="round"/>
<path d="M25,120 l-5,10 h10z" fill="#a3b18a" stroke="#a3b18a"/>
<path d="M70,150 l20,-40 l20,40" fill="#a3b18a" stroke="#a3b18a" stroke-linejoin="round"/>
<path d="M85,110 l-5,10 h10z" fill="#a3b18a" stroke="#a3b18a"/>
<path d="M130,150 l15,-25 l15,25" fill="#a3b18a" stroke="#a3b18a" stroke-linejoin="round"/>
<path d="M140,125 l-5,10 h10z" fill="#a3b18a" stroke="#a3b18a"/>

<rect x="180" y="135" width="40" height="15" fill="#a3b18a"/>
<rect x="185" y="125" width="30" height="10" fill="#a3b18a" rx="5"/>
<circle cx="190" cy="150" r="5" fill="#a3b18a"/>
<circle cx="210" cy="150" r="5" fill="#a3b18a"/>
<rect x="175" y="125" width="5" height="10" fill="white"/>

<g transform="translate(250 120)">
  <circle cx="5" cy="5" r="5" fill="#a3b18a"/>
  <path d="M5,10 v20" stroke="#a3b18a" stroke-width="2"/>
  <path d="M-5,20 h20" stroke="#a3b18a" stroke-width="2"/>
</g>
<g transform="translate(270 125)">
    <circle cx="5" cy="5" r="5" fill="#a3b18a"/>
    <path d="M5,10 v15" stroke="#a3b18a" stroke-width="2"/>
    <path d="M0,15 h10" stroke="#a3b18a" stroke-width="2"/>
</g>

<g transform="translate(300 80) rotate(20)">
  <path d="M0,0 l-20,5 l20,5 v-10z" fill="#a3b18a"/>
  <path d="M0,0 l5,-5 l10,0 l-5,5z" fill="#a3b18a"/>
  <path d="M0,0 l5,5 l10,0 l-5,-5z" fill="#a3b18a"/>
</g>
<path d="M330,100 c5,-5 10,-5 15,0" stroke="#a3b18a" fill="none"/>
<path d="M340,90 c5,-5 10,-5 15,0" stroke="#a3b18a" fill="none"/>

<path d="M320,150 l20,-30 l20,30" fill="#a3b18a" stroke="#a3b18a" stroke-linejoin="round"/>
<path d="M335,120 l-5,10 h10z" fill="#a3b18a" stroke="#a3b18a"/>
<path d="M360,150 l20,-40 l20,40" fill="#a3b18a" stroke="#a3b18a" stroke-linejoin="round"/>
<path d="M375,110 l-5,10 h10z" fill="#a3b18a" stroke="#a3b18a"/>

</svg>